# AST/ASF file generated using VICON BodyLanguage
# -----------------------------------------------
:version 1.10
:name VICON
:units
  mass 1.0
  length 0.45
  angle deg
:documentation
   .ast/.asf automatically generated from VICON data using
   VICON BodyBuilder and BodyLanguage model FoxedUp or BRILLIANT.MOD
:root
   order TX TY TZ RX RY RZ
   axis XYZ
   position 0 0 0  
   orientation 0 0 0 
:bonedata
  begin
     id 1 
     name lhipjoint
     direction 0.561001 -0.76473 0.316963 
     length 2.4722 
     axis 0 0 0  XYZ
  end
  begin
     id 2 
     name lfemur
     direction 0.34202 -0.939693 0  
     length 7.59403  
     axis 0 0 20  XYZ
    dof rx ry rz
    limits (-160.0 20.0)
           (-70.0 70.0)
           (-60.0 70.0)
  end
  begin
     id 3 
     name ltibia
     direction 0.34202 -0.939693 0   
     length 7.89655   
     axis 0 0 20   XYZ
    dof rx
    limits (-10.0 170.0)
  end
  begin
     id 4 
     name lfoot
     direction 0.061296 -0.168409 0.98381   
     length 2.73287   
     axis -90 7.62852e-016 20   XYZ
    dof rx rz
    limits (-45.0 90.0)
           (-70.0 20.0)
  end
  begin
     id 5 
     name ltoes
     direction 1.53547e-011 -4.21984e-011 1   
     length 1.37057   
     axis -90 7.62852e-016 20   XYZ
    dof rx
    limits (-90.0 20.0)
  end
  begin
     id 6 
     name rhipjoint
     direction -0.559611 -0.765599 0.317323   
     length 2.46939  
     axis 0 0 0  XYZ 
  end
  begin
     id 7 
     name rfemur
     direction -0.34202 -0.939693 0   
     length 7.53712   
     axis 0 0 -20   XYZ
    dof rx ry rz
    limits (-160.0 20.0)
           (-70.0 70.0)
           (-70.0 60.0)
  end
  begin
     id 8 
     name rtibia
     direction -0.34202 -0.939693 0   
     length 8.12549   
     axis 0 0 -20   XYZ
    dof rx
    limits (-10.0 170.0)
 end
 begin
     id 9 
     name rfoot
     direction -0.066984 -0.184037 0.980634   
     length 2.67541  
     axis -90 -7.62852e-016 -20   XYZ
    dof rx rz
    limits (-45.0 90.0)
           (-20.0 70.0)
  end
  begin
     id 10 
     name rtoes
     direction -1.53549e-011 -4.21786e-011 1   
     length 1.34085   
     axis -90 -7.62852e-016 -20   XYZ
    dof rx
    limits (-90.0 20.0)
  end
  begin
     id 11 
     name lowerback
     direction -0.0522728 0.992594 -0.109658   
     length 2.05633   
     axis 0 0 0   XYZ
    dof rx ry rz
    limits (-20.0 45.0)
           (-30.0 30.0)
           (-30.0 30.0)
  end
  begin
     id 12 
     name upperback
     direction 0.00589338 0.999977 0.00335704   
     length 2.05845   
     axis 0 0 0   XYZ
    dof rx ry rz
    limits (-20.0 45.0)
           (-30.0 30.0)
           (-30.0 30.0)
  end
  begin
     id 13 
     name thorax
     direction 0.0292928 0.998059 0.0549487   
     length 2.09281   
     axis 0 0 0   XYZ
    dof rx ry rz
    limits (-20.0 45.0)
           (-30.0 30.0)
           (-30.0 30.0)
  end
  begin
     id 14 
     name lowerneck
     direction 0.0356368 0.980775 0.191858   
     length 1.84767   
     axis 0 0 0   XYZ
    dof rx ry rz
    limits (-20.0 45.0)
           (-30.0 30.0)
           (-30.0 30.0)
  end
  begin
     id 15 
     name upperneck
     direction -0.0227605 0.98931 -0.14404   
     length 1.89582   
     axis 0 0 0   XYZ
    dof rx ry rz
    limits (-20.0 45.0)
           (-30.0 30.0)
           (-30.0 30.0)
  end
  begin
     id 16
     name head
     direction -0.00932985 0.997511 -0.0698904  
     length 1.90213  
     axis 0 0 0   XYZ
    dof rx ry rz
    limits (-20.0 45.0)
           (-30.0 30.0)
           (-30.0 30.0)
  end
  begin
     id 17 
     name lclavicle
     direction 0.873442 0.479511 0.0846686  
     length 3.41193  
     axis 0 0 0   XYZ
    dof ry rz
    limits (-20.0 10.0)
           (0.0 20.0)
  end
  begin
     id 18 
     name lhumerus
     direction 1 -4.4897e-011 -5.62117e-018   
     length 5.59864   
     axis 180 -30 -90   XYZ
    dof rx ry rz
    limits (-60.0 90.0)
           (-90.0 90.0)
           (-90.0 90.0)
  end
  begin
     id 19
     name lradius
     direction 1 -4.48966e-011 -6.26295e-027   
     length 3.59542   
     axis 180 -30 -90   XYZ
    dof rx
    limits (-10.0 170.0)
  end
  begin
     id 20
     name lwrist
     direction 1 -4.48947e-011 -1.74096e-026   
     length 1.79771   
     axis 1.04567e-014 90 90   XYZ
    dof ry
    limits (-180.0 0.0)
 end
  begin
     id 21 
     name lhand
     direction 1 -4.49085e-011 -3.48469e-026   
     length 0.572014   
     axis 2.22196e-014 90 90   XYZ
    dof rx rz
    limits (-90.0 90.0)
           (-45.0 45.0)
  end
  begin
     id 22 
     name lfingers
     direction 1 -4.48884e-011 -6.96135e-026   
     length 0.461173   
     axis 4.44383e-014 90 90   XYZ
    dof rx
    limits (0.0 90.0)
  end
  begin
     id 23
     name lthumb
     direction 0.707107 -6.34976e-011 0.707107   
     length 0.662154   
     axis -90 45 -5.4397e-014   XYZ
    dof rx rz
    limits (-45.0 45.0)
           (-45.0 45.0)
  end
  begin
     id 24 
     name rclavicle
     direction -0.890242 0.443271 0.104786   
     length 3.46753  
     axis 0 0 0   XYZ 
    dof ry rz
    limits (-10.0 20.0)
           (-20.0 0.0)
  end
  begin
     id 25 
     name rhumerus
     direction -1 -4.48963e-011 -5.41723e-018  
     length 5.8094   
     axis 180 30 90   XYZ
    dof rx ry rz
    limits (-90.0 60.0)
           (-90.0 90.0)
           (-90.0 90.0)
  end
  begin
     id 26 
     name rradius
     direction -1 -4.48958e-011 -6.51059e-027   
     length 3.66953   
     axis 180 30 90   XYZ
    dof rx
    limits (-10.0 170.0)
  end
  begin
     id 27 
     name rwrist
     direction -1 -4.48975e-011 -1.74124e-026   
     length 1.83476   
     axis 1.04567e-014 -90 -90   XYZ
    dof ry
    limits (-180.0 0.0)
  end
  begin
     id 28
     name rhand
     direction -1 -4.49013e-011 -3.48326e-026   
     length 0.57843   
     axis 2.22196e-014 -90 -90   XYZ
    dof rx rz
    limits (-90.0 90.0)
           (-45.0 45.0)
  end
  begin
     id 29
     name rfingers
     direction -1 -4.49023e-011 -6.9669e-026   
     length 0.466345   
     axis 4.44383e-014 -90 -90   XYZ
    dof rx
    limits (0.0 90.0)
  end
  begin
     id 30
     name rthumb
     direction -0.707107 -6.34926e-011 0.707107   
     length 0.669581   
     axis -90 -45 5.4397e-014   XYZ
    dof rx rz
    limits (-45.0 45.0)
           (-45.0 45.0)
  end
:hierarchy
  begin
    root lhipjoint rhipjoint lowerback
    lhipjoint lfemur
    lfemur ltibia
    ltibia lfoot
    lfoot ltoes
    rhipjoint rfemur
    rfemur rtibia
    rtibia rfoot
    rfoot rtoes
    lowerback upperback
    upperback thorax
    thorax lowerneck lclavicle rclavicle
    lowerneck upperneck
    upperneck head
    lclavicle lhumerus
    lhumerus lradius
    lradius lwrist
    lwrist lhand lthumb
    lhand lfingers
    rclavicle rhumerus
    rhumerus rradius
    rradius rwrist
    rwrist rhand rthumb
    rhand rfingers
  end

#!OML:ASF H:\SkateBoarding\Project 1\Capture day 1\Session 1\Skater.ASF
:FULLY-SPECIFIED
:DEGREES
49
root 23.5209 16.5307 -10.4064 14.7297 20.5008 4.2068
lowerback 15.0705 1.05489 -7.48308
upperback 1.77331 0.127557 -0.820909
thorax -6.58189 0.256018 3.33296
lowerneck -22.0267 -3.54945 -1.34991
upperneck 26.2639 -5.22216 2.32143
head 12.475 -2.10412 0.226693
rclavicle 4.90501e-014 5.06901e-015
rhumerus -32.536 21.3718 -84.2506
rradius 62.3465
rwrist -16.8295
rhand -46.0815 8.3213
rfingers 7.12502
rthumb -18.8241 -20.7879
lclavicle 4.90501e-014 5.06901e-015
lhumerus -14.125 -31.3664 69.7756
lradius 65.0359
lwrist 36.4415
lhand -30.6398 -0.234874
lfingers 7.12502
lthumb -3.93533 29.7085
rfemur -68.772 2.85228 7.61949
rtibia 79.7843
rfoot -17.2624 17.0266
rtoes -17.7918
lfemur -8.52018 -7.85739 -9.84138
ltibia 39.2314
lfoot -14.8977 -26.0506
ltoes 13.1922
50
root 23.511 16.4009 -10.0722 15.3402 20.2941 4.44176
lowerback 14.4192 0.943839 -7.82497
upperback 1.68063 -0.0150058 -0.762127
thorax -6.30466 0.187961 3.61692
lowerneck -22.1761 -3.48968 -1.43342
upperneck 26.4286 -5.02131 2.03014
head 12.5586 -2.06022 0.161173
rclavicle 3.97569e-015 1.53064e-014
rhumerus -33.0978 23.1275 -83.1768
rradius 63.6556
rwrist -16.2022
rhand -45.6429 8.81522
rfingers 7.12502
rthumb -18.4022 -20.3343
lclavicle 3.97569e-015 1.53064e-014
lhumerus -11.3564 -32.6836 67.2472
lradius 67.3064
lwrist 35.0783
lhand -30.3232 0.844023
lfingers 7.12502
lthumb -3.62956 30.7929
rfemur -70.6115 2.3984 7.16451
rtibia 80.8386
rfoot -16.743 17.2154
rtoes -17.6171
lfemur -7.56475 -7.58904 -9.7202
ltibia 38.725
lfoot -14.7959 -26.5338
ltoes 13.681
51
root 23.5005 16.2867 -9.7236 15.6182 20.2236 4.48958
lowerback 14.0672 0.913799 -7.80978
upperback 1.56863 -0.0276915 -0.790775
thorax -6.22842 0.180672 3.57936
lowerneck -22.1786 -3.53615 -1.3435
upperneck 26.6469 -5.05527 1.80035
head 12.6367 -2.09399 0.051518
rclavicle 3.33958e-014 -6.95746e-016
rhumerus -33.73 24.329 -82.2184
rradius 64.7216
rwrist -15.0565
rhand -45.3706 9.45327
rfingers 7.12502
rthumb -18.1402 -19.7208
lclavicle 3.33958e-014 -6.95746e-016
lhumerus -8.2164 -34.2333 64.3859
lradius 69.5382
lwrist 34.2944
lhand -29.7717 1.48022
lfingers 7.12502
lthumb -3.097 31.4375
rfemur -71.9475 1.95548 6.97025
rtibia 81.718
rfoot -16.1483 17.5813
rtoes -17.3897
lfemur -6.03764 -7.65353 -9.43175
ltibia 37.6978
lfoot -14.6663 -26.9873
ltoes 13.8931
52
root 23.4915 16.1878 -9.36469 15.5805 20.4006 4.39711
lowerback 14.1045 0.752899 -7.58558
upperback 1.4571 -0.209484 -0.702857
thorax -6.34752 0.0944828 3.58195
lowerneck -22.173 -3.52849 -1.35616
upperneck 26.9111 -4.96305 1.53243
head 12.7315 -2.08792 -0.0344185
rclavicle 6.60959e-015 6.85807e-015
rhumerus -34.1743 25.8958 -81.1313
rradius 65.628
rwrist -13.8429
rhand -45.3161 9.94939
rfingers 7.12502
rthumb -18.0878 -19.2296
lclavicle 6.60959e-015 6.85807e-015
lhumerus -5.13948 -35.2418 61.5282
lradius 71.7938
lwrist 34.1559
lhand -29.1001 1.73318
lfingers 7.12502
lthumb -2.44839 31.6989
rfemur -72.7748 1.45005 7.02862
rtibia 82.4681
rfoot -15.7421 17.8114
rtoes -17.0545
lfemur -3.98603 -8.10766 -9.00178
ltibia 36.122
lfoot -14.7765 -27.0662
ltoes 13.7985
53
root 23.4908 16.1007 -8.9978 15.4428 20.7105 4.2991
lowerback 14.2796 0.562246 -7.14912
upperback 1.33017 -0.411311 -0.643143
thorax -6.55978 -0.00409519 3.43989
lowerneck -22.2928 -3.53984 -1.25786
upperneck 27.3809 -4.87921 1.0688
head 12.9267 -2.09718 -0.220224
rclavicle -5.85172e-014 -1.54058e-014
rhumerus -34.7062 27.4669 -80.0456
rradius 66.4408
rwrist -12.0691
rhand -45.936 9.8439
rfingers 7.12502
rthumb -18.6842 -19.2788
lclavicle -5.85172e-014 -1.54058e-014
lhumerus -1.93157 -36.0172 58.6719
lradius 73.9057
lwrist 34.4212
lhand -28.1881 3.40844
lfingers 7.12502
lthumb -1.56762 33.3824
rfemur -73.299 0.717238 7.18347
rtibia 83.0774
rfoot -15.3273 18.1945
rtoes -16.6781
lfemur -1.56424 -8.7995 -8.63014
ltibia 33.9657
lfoot -15.4236 -26.6533
ltoes 13.1
54
root 23.4841 16.0224 -8.61646 15.4051 21.1192 4.27077
lowerback 14.3845 0.289072 -6.90235
upperback 1.17523 -0.737819 -0.473094
thorax -6.74856 -0.157406 3.54814
lowerneck -22.4349 -3.51525 -1.54219
upperneck 27.7965 -4.68464 0.881657
head 13.1262 -2.06194 -0.217428
rclavicle -1.89591e-014 1.80397e-014
rhumerus -35.0372 29.2368 -78.7151
rradius 67.3216
rwrist -10.935
rhand -45.1197 10.4249
rfingers 7.12502
rthumb -17.8988 -18.7714
lclavicle -1.89591e-014 1.80397e-014
lhumerus 1.05133 -36.2942 56.0497
lradius 76.0043
lwrist 34.7546
lhand -28.9912 3.5547
lfingers 7.12502
lthumb -2.34323 33.5216
rfemur -73.7992 -0.0970144 7.32429
rtibia 83.7005
rfoot -15.031 18.5682
rtoes -16.6322
lfemur 0.933635 -9.63309 -8.30487
ltibia 31.4741
lfoot -15.8159 -26.1654
ltoes 13.0172
55
root 23.4745 15.9577 -8.2212 15.4527 21.6289 4.25037
lowerback 14.4287 -0.0449141 -6.62919
upperback 0.962856 -1.13572 -0.283996
thorax -6.95815 -0.344175 3.677
lowerneck -22.5972 -3.44948 -1.8314
upperneck 28.2174 -4.40974 0.649454
head 13.3319 -2.00052 -0.217501
rclavicle -3.02153e-014 1.17283e-014
rhumerus -35.2469 30.9934 -77.3802
rradius 68.0088
rwrist -9.8344
rhand -45.1507 10.8009
rfingers 7.12502
rthumb -17.9287 -18.3927
lclavicle -3.02153e-014 1.17283e-014
lhumerus 3.77144 -36.2135 53.6047
lradius 77.9707
lwrist 34.7957
lhand -28.7668 3.46722
lfingers 7.12502
lthumb -2.12648 33.4364
rfemur -74.2296 -0.977273 7.52152
rtibia 84.2202
rfoot -14.8066 18.9342
rtoes -16.5864
lfemur 3.62548 -10.6532 -7.97787
ltibia 28.3395
lfoot -16.3562 -25.2367
ltoes 12.778
56
root 23.4675 15.8435 -7.82944 15.5215 22.1819 4.16755
lowerback 14.3903 -0.408212 -6.20053
upperback 0.748203 -1.54273 -0.131638
thorax -7.12871 -0.542734 3.67971
lowerneck -22.7881 -3.38044 -2.10716
upperneck 28.6015 -4.1423 0.456555
head 13.5315 -1.93771 -0.205895
rclavicle 3.74895e-014 -2.72335e-014
rhumerus -35.2568 32.6262 -76.1017
rradius 68.4403
rwrist -8.91513
rhand -44.8163 11.1572
rfingers 7.12502
rthumb -17.6069 -18.0656
lclavicle 3.74895e-014 -2.72335e-014
lhumerus 6.32381 -35.8939 51.3098
lradius 79.8078
lwrist 34.6107
lhand -28.1788 3.46782
lfingers 7.12502
lthumb -1.55861 33.4419
rfemur -75.0269 -2.00336 7.79097
rtibia 84.9507
rfoot -14.4074 19.3041
rtoes -16.3837
lfemur 6.63601 -11.8676 -7.60632
ltibia 24.524
lfoot -17.0081 -23.8756
ltoes 12.6822
57
root 23.4525 15.8033 -7.41114 15.6552 22.7399 3.98757
lowerback 14.2043 -0.781621 -5.73081
upperback 0.496729 -1.94541 0.0553948
thorax -7.26001 -0.741842 3.69192
lowerneck -22.967 -3.27324 -2.32887
upperneck 28.9514 -3.81148 0.190932
head 13.7119 -1.85441 -0.219838
rclavicle 6.45367e-014 1.21197e-014
rhumerus -35.178 34.2823 -74.858
rradius 68.8967
rwrist -8.50267
rhand -45.1087 10.6786
rfingers 7.12502
rthumb -17.8882 -18.5187
lclavicle 6.45367e-014 1.21197e-014
lhumerus 8.55353 -35.3636 49.3118
lradius 81.4516
lwrist 34.0579
lhand -27.5001 3.0011
lfingers 7.12502
lthumb -0.903113 32.9789
rfemur -75.3845 -2.83911 8.24938
rtibia 85.2892
rfoot -14.4483 19.5654
rtoes -16.747
lfemur 10.1209 -13.1817 -7.19276
ltibia 19.4605
lfoot -17.6625 -21.7385
ltoes 13.3037
58
root 23.4352 15.7781 -6.98403 15.8028 23.3341 3.67499
lowerback 13.972 -1.16639 -4.97674
upperback 0.193454 -2.3252 0.14554
thorax -7.44131 -0.940483 3.434
lowerneck -23.1158 -3.12822 -2.37077
upperneck 29.285 -3.49886 -0.0579492
head 13.8772 -1.75825 -0.260083
rclavicle -1.81143e-014 6.13748e-015
rhumerus -35.1678 35.6094 -73.8516
rradius 69.2943
rwrist -8.39734
rhand -45.0526 10.2144
rfingers 7.12502
rthumb -17.8342 -18.9878
lclavicle -1.81143e-014 6.13748e-015
lhumerus 10.6212 -34.7794 47.4061
lradius 82.9742
lwrist 33.2093
lhand -27.504 3.15032
lfingers 7.12502
lthumb -0.906894 33.1281
rfemur -75.7092 -3.58837 8.84664
rtibia 85.5275
rfoot -14.3916 19.8596
rtoes -16.4616
lfemur 14.5319 -14.6328 -6.69493
ltibia 12.3401
lfoot -18.421 -18.3506
ltoes 13.9488
59
root 23.4027 15.7607 -6.53413 15.8015 23.9144 3.28328
lowerback 13.6381 -1.5266 -4.6026
upperback 0.00990823 -2.70873 0.456712
thorax -7.41609 -1.13335 3.61914
lowerneck -23.2976 -2.95248 -2.54334
upperneck 29.5212 -3.04034 -0.437103
head 14.0091 -1.63525 -0.303012
rclavicle -5.84769e-014 -8.85834e-015
rhumerus -34.7502 36.9935 -72.5422
rradius 69.5521
rwrist -8.54522
rhand -44.7072 9.8199
rfingers 7.12502
rthumb -17.5019 -19.4123
lclavicle -5.84769e-014 -8.85834e-015
lhumerus 12.208 -33.8486 46.0537
lradius 84.5057
lwrist 32.5883
lhand -27.4736 3.09667
lfingers 7.12502
lthumb -0.877516 33.0746
rfemur -75.8084 -4.1103 9.58011
rtibia 85.6907
rfoot -14.7468 19.9549
rtoes -16.6705
lfemur 21.6019 -14.899 -5.61711
ltibia -7.31528e-014
lfoot -18.0606 -12.1819
ltoes 15.4838
60
root 23.3706 15.7569 -6.08003 15.9285 24.4901 2.92524
lowerback 13.2178 -1.91508 -4.11102
upperback -0.250545 -3.12021 0.674606
thorax -7.4335 -1.34421 3.63851
lowerneck -23.4458 -2.74271 -2.67477
upperneck 29.7877 -2.57868 -0.720576
head 14.1504 -1.49408 -0.313658
rclavicle 4.61367e-014 8.77137e-015
rhumerus -34.3336 38.3767 -71.4243
rradius 69.8123
rwrist -9.17875
rhand -44.4074 9.24737
rfingers 7.12502
rthumb -17.2134 -20.0102
lclavicle 4.61367e-014 8.77137e-015
lhumerus 13.4641 -32.9181 44.8446
lradius 85.9754
lwrist 32.0791
lhand -27.4234 2.89912
lfingers 7.12502
lthumb -0.828998 32.8773
rfemur -75.9753 -4.66084 10.3026
rtibia 85.785
rfoot -15.157 19.9087
rtoes -17.2643
lfemur 22.1332 -15.1374 -4.53954
ltibia 2.22639e-014
lfoot -17.3446 -11.4995
ltoes 17.1519
61
root 23.3336 15.7625 -5.62127 15.9773 25.1275 2.62601
lowerback 12.8432 -2.32316 -3.76107
upperback -0.428366 -3.57915 0.937202
thorax -7.37534 -1.57606 3.78969
lowerneck -23.6482 -2.49747 -2.80733
upperneck 29.9807 -2.03398 -1.07821
head 14.272 -1.33012 -0.338226
rclavicle -1.04541e-013 -1.93163e-014
rhumerus -33.6308 39.6568 -70.1824
rradius 69.9962
rwrist -9.81603
rhand -44.2014 8.56568
rfingers 7.12502
rthumb -17.0151 -20.7091
lclavicle -1.04541e-013 -1.93163e-014
lhumerus 14.5308 -31.803 43.8337
lradius 87.3908
lwrist 31.8755
lhand -28.2075 2.49843
lfingers 7.12502
lthumb -1.58633 32.4723
rfemur -75.9457 -5.17309 10.9281
rtibia 85.8294
rfoot -15.4341 20.0185
rtoes -17.162
lfemur 22.6527 -15.4707 -3.51353
ltibia 2.8625e-014
lfoot -16.8124 -10.2373
ltoes 18.9246
62
root 23.2903 15.7698 -5.15768 16.0432 25.742 2.53626
lowerback 12.4837 -2.69145 -3.6703
upperback -0.585726 -4.03293 1.11952
thorax -7.29327 -1.79859 3.99598
lowerneck -23.7869 -2.27731 -2.93473
upperneck 30.1574 -1.56334 -1.33195
head 14.3766 -1.18324 -0.334214
rclavicle -1.17997e-014 5.89521e-015
rhumerus -32.8634 40.8227 -69.0267
rradius 70.0782
rwrist -10.4236
rhand -44.0054 7.76631
rfingers 7.12502
rthumb -16.8264 -21.5246
lclavicle -1.17997e-014 5.89521e-015
lhumerus 15.5509 -30.738 43.045
lradius 88.5944
lwrist 31.6654
lhand -28.1694 1.97572
lfingers 7.12502
lthumb -1.54953 31.9498
rfemur -75.8378 -5.84702 11.5017
rtibia 85.8511
rfoot -15.6301 20.2524
rtoes -16.9579
lfemur 23.1504 -15.8439 -2.71148
ltibia 5.08889e-014
lfoot -16.6921 -8.43182
ltoes 21.1099
